<svg width="35" height="35" viewBox="0 0 35 35" fill="none" xmlns="http://www.w3.org/2000/svg">
<path opacity="0.4" d="M11.3896 2.91666H23.5958C28.9188 2.91666 32.0833 6.08125 32.0833 11.3896V23.5958C32.0833 28.9042 28.9188 32.0687 23.6104 32.0687H11.3896C6.08125 32.0833 2.91667 28.9187 2.91667 23.6104V11.3896C2.91667 6.08125 6.08125 2.91666 11.3896 2.91666Z" fill="#F8FAFC"/>
<path d="M7.97708 16.7271L14.2333 10.4708C14.6563 10.0479 15.3562 10.0479 15.7792 10.4708C16.2021 10.8937 16.2021 11.5937 15.7792 12.0167L11.3896 16.4062H26.25C26.8479 16.4062 27.3438 16.9021 27.3438 17.5C27.3438 18.0979 26.8479 18.5937 26.25 18.5937H11.3896L15.7792 22.9833C16.2021 23.4062 16.2021 24.1062 15.7792 24.5292C15.5604 24.7479 15.2833 24.85 15.0063 24.85C14.7292 24.85 14.4521 24.7479 14.2333 24.5292L7.97708 18.2729C7.77292 18.0687 7.65625 17.7917 7.65625 17.5C7.65625 17.2083 7.77292 16.9312 7.97708 16.7271Z" fill="#F8FAFC"/>
</svg>
