<svg width="35" height="35" viewBox="0 0 35 35" fill="none" xmlns="http://www.w3.org/2000/svg">
<path opacity="0.4" d="M23.6104 2.91666H11.3896C6.08124 2.91666 2.91666 6.08125 2.91666 11.3896V23.5958C2.91666 28.9187 6.08124 32.0833 11.3896 32.0833H23.5958C28.9042 32.0833 32.0687 28.9187 32.0687 23.6104V11.3896C32.0833 6.08125 28.9187 2.91666 23.6104 2.91666Z" fill="#F8FAFC"/>
<path d="M27.2562 8.32708C27.1396 8.06458 26.9354 7.84583 26.6583 7.72917C26.5271 7.68542 26.3958 7.65625 26.25 7.65625H20.4167C19.8187 7.65625 19.3229 8.15208 19.3229 8.75C19.3229 9.34792 19.8187 9.84375 20.4167 9.84375H23.6104L18.1854 15.2688C17.7625 15.6917 17.7625 16.3917 18.1854 16.8146C18.4042 17.0333 18.6812 17.1354 18.9583 17.1354C19.2354 17.1354 19.5125 17.0333 19.7312 16.8146L25.1562 11.3896V14.5833C25.1562 15.1813 25.6521 15.6771 26.25 15.6771C26.8479 15.6771 27.3437 15.1813 27.3437 14.5833V8.75C27.3437 8.60417 27.3146 8.47292 27.2562 8.32708Z" fill="#F8FAFC"/>
<path d="M16.8146 18.1854C16.3917 17.7625 15.6917 17.7625 15.2688 18.1854L9.84375 23.6104V20.4167C9.84375 19.8188 9.34792 19.3229 8.75 19.3229C8.15208 19.3229 7.65625 19.8188 7.65625 20.4167V26.25C7.65625 26.3958 7.68542 26.5271 7.74375 26.6729C7.86042 26.9354 8.06458 27.1542 8.34167 27.2708C8.45833 27.3146 8.60417 27.3438 8.75 27.3438H14.5833C15.1813 27.3438 15.6771 26.8479 15.6771 26.25C15.6771 25.6521 15.1813 25.1563 14.5833 25.1563H11.3896L16.8146 19.7313C17.2375 19.3083 17.2375 18.6083 16.8146 18.1854Z" fill="#F8FAFC"/>
</svg>
