<svg width="30" height="30" viewBox="0 0 30 30" fill="none" xmlns="http://www.w3.org/2000/svg">
<path d="M22.525 14.75V11.1375C22.525 7.01252 19.15 3.63752 15.025 3.63752C10.8875 3.63752 7.52501 7.00002 7.52501 11.1375V14.75C7.52501 15.5125 7.20001 16.675 6.81251 17.325L5.37501 19.7125C4.48751 21.1875 5.10001 22.825 6.72501 23.375C12.1125 25.175 17.925 25.175 23.3125 23.375C24.825 22.875 25.4875 21.0875 24.6625 19.7125" stroke="#171717" stroke-width="1.5" stroke-miterlimit="10" stroke-linecap="round"/>
<path d="M17.3375 3.99989C16.95 3.88739 16.55 3.79989 16.1375 3.74989C14.9375 3.59989 13.7875 3.68739 12.7125 3.99989C13.075 3.07489 13.975 2.42489 15.025 2.42489C16.075 2.42489 16.975 3.07489 17.3375 3.99989Z" stroke="#171717" stroke-width="1.5" stroke-miterlimit="10" stroke-linecap="round" stroke-linejoin="round"/>
<path d="M18.775 23.8251C18.775 25.8876 17.0875 27.5751 15.025 27.5751C14 27.5751 13.05 27.1501 12.375 26.4751C11.7 25.8001 11.275 24.8501 11.275 23.8251" stroke="#171717" stroke-width="1.5" stroke-miterlimit="10"/>
</svg>
