<svg width="25" height="25" viewBox="0 0 25 25" fill="none" xmlns="http://www.w3.org/2000/svg">
<path d="M12.625 13.3125C12.5521 13.3021 12.4583 13.3021 12.375 13.3125C10.5417 13.25 9.08334 11.75 9.08334 9.90629C9.08334 8.02087 10.6042 6.48962 12.5 6.48962C14.3854 6.48962 15.9167 8.02087 15.9167 9.90629C15.9063 11.75 14.4583 13.25 12.625 13.3125Z" stroke="#171717" stroke-width="1.5" stroke-linecap="round" stroke-linejoin="round"/>
<path d="M19.5208 20.1875C17.6667 21.8854 15.2083 22.9167 12.5 22.9167C9.79167 22.9167 7.33333 21.8854 5.47917 20.1875C5.58333 19.2083 6.20833 18.25 7.32292 17.5C10.1771 15.6042 14.8438 15.6042 17.6771 17.5C18.7917 18.25 19.4167 19.2083 19.5208 20.1875Z" stroke="#171717" stroke-width="1.5" stroke-linecap="round" stroke-linejoin="round"/>
<path d="M12.5 22.9167C18.253 22.9167 22.9167 18.253 22.9167 12.5C22.9167 6.74707 18.253 2.08337 12.5 2.08337C6.74703 2.08337 2.08333 6.74707 2.08333 12.5C2.08333 18.253 6.74703 22.9167 12.5 22.9167Z" stroke="#171717" stroke-width="1.5" stroke-linecap="round" stroke-linejoin="round"/>
</svg>
