<svg width="25" height="25" viewBox="0 0 25 25" fill="none" xmlns="http://www.w3.org/2000/svg">
<path d="M13.4271 6.125H5.3229C3.54165 6.125 2.08333 7.58332 2.08333 9.36457V21.1979C2.08333 22.7083 3.16666 23.3542 4.48958 22.6146L8.58332 20.3333C9.02082 20.0937 9.72916 20.0937 10.1562 20.3333L14.25 22.6146C15.5729 23.3542 16.6562 22.7083 16.6562 21.1979V9.36457C16.6667 7.58332 15.2083 6.125 13.4271 6.125Z" stroke="#171717" stroke-width="1.5" stroke-linecap="round" stroke-linejoin="round"/>
<path d="M16.6667 9.36457V21.1979C16.6667 22.7083 15.5833 23.3437 14.2604 22.6146L10.1667 20.3333C9.72917 20.0937 9.02082 20.0937 8.58332 20.3333L4.48958 22.6146C3.16666 23.3437 2.08333 22.7083 2.08333 21.1979V9.36457C2.08333 7.58332 3.54165 6.125 5.3229 6.125H13.4271C15.2083 6.125 16.6667 7.58332 16.6667 9.36457Z" stroke="#171717" stroke-width="1.5" stroke-linecap="round" stroke-linejoin="round"/>
<path d="M22.9167 5.32294V17.1563C22.9167 18.6667 21.8333 19.3021 20.5104 18.5729L16.6667 16.4271V9.36461C16.6667 7.58336 15.2083 6.12505 13.4271 6.12505H8.33333V5.32294C8.33333 3.54169 9.79165 2.08337 11.5729 2.08337H19.6771C21.4583 2.08337 22.9167 3.54169 22.9167 5.32294Z" stroke="#171717" stroke-width="1.5" stroke-linecap="round" stroke-linejoin="round"/>
</svg>
