<svg width="26" height="25" viewBox="0 0 26 25" fill="none" xmlns="http://www.w3.org/2000/svg">
<path d="M13 15.625C14.7259 15.625 16.125 14.2259 16.125 12.5C16.125 10.7741 14.7259 9.375 13 9.375C11.2741 9.375 9.875 10.7741 9.875 12.5C9.875 14.2259 11.2741 15.625 13 15.625Z" stroke="#171717" stroke-width="1.5" stroke-miterlimit="10" stroke-linecap="round" stroke-linejoin="round"/>
<path d="M2.58333 13.4167V11.5834C2.58333 10.5 3.46875 9.6042 4.5625 9.6042C6.44792 9.6042 7.21875 8.27087 6.27083 6.63545C5.72917 5.69795 6.05208 4.4792 7 3.93754L8.80208 2.90629C9.625 2.4167 10.6875 2.70837 11.1771 3.53129L11.2917 3.7292C12.2292 5.36462 13.7708 5.36462 14.7187 3.7292L14.8333 3.53129C15.3229 2.70837 16.3854 2.4167 17.2083 2.90629L19.0104 3.93754C19.9583 4.4792 20.2812 5.69795 19.7396 6.63545C18.7917 8.27087 19.5625 9.6042 21.4479 9.6042C22.5313 9.6042 23.4271 10.4896 23.4271 11.5834V13.4167C23.4271 14.5 22.5417 15.3959 21.4479 15.3959C19.5625 15.3959 18.7917 16.7292 19.7396 18.3646C20.2812 19.3125 19.9583 20.5209 19.0104 21.0625L17.2083 22.0938C16.3854 22.5834 15.3229 22.2917 14.8333 21.4688L14.7187 21.2709C13.7812 19.6355 12.2396 19.6355 11.2917 21.2709L11.1771 21.4688C10.6875 22.2917 9.625 22.5834 8.80208 22.0938L7 21.0625C6.05208 20.5209 5.72917 19.3021 6.27083 18.3646C7.21875 16.7292 6.44792 15.3959 4.5625 15.3959C3.46875 15.3959 2.58333 14.5 2.58333 13.4167Z" stroke="#171717" stroke-width="1.5" stroke-miterlimit="10" stroke-linecap="round" stroke-linejoin="round"/>
</svg>
