<svg width="26" height="25" viewBox="0 0 26 25" fill="none" xmlns="http://www.w3.org/2000/svg">
<path d="M23.4167 9.375V15.625C23.4167 18.2292 22.8958 20.0521 21.7292 21.2292L15.0833 14.5833L23.1354 6.53125C23.3229 7.35417 23.4167 8.29166 23.4167 9.375Z" stroke="#171717" stroke-width="1.5" stroke-linecap="round" stroke-linejoin="round"/>
<path d="M23.1354 6.53129L7.03125 22.6355C3.89583 21.9167 2.58334 19.75 2.58334 15.625V9.37504C2.58334 4.16671 4.66668 2.08337 9.87501 2.08337H16.125C20.25 2.08337 22.4167 3.39588 23.1354 6.53129Z" stroke="#171717" stroke-width="1.5" stroke-linecap="round" stroke-linejoin="round"/>
<path d="M21.7292 21.2292C20.5521 22.3959 18.7292 22.9167 16.125 22.9167H9.87501C8.79168 22.9167 7.85417 22.823 7.03125 22.6355L15.0833 14.5834L21.7292 21.2292Z" stroke="#171717" stroke-width="1.5" stroke-linecap="round" stroke-linejoin="round"/>
<path d="M7 8.3125C7.70833 5.26042 12.2917 5.26042 13 8.3125C13.4063 10.1042 12.2812 11.625 11.2917 12.5625C10.5729 13.25 9.43751 13.25 8.70835 12.5625C7.71876 11.625 6.58333 10.1042 7 8.3125Z" stroke="#171717" stroke-width="1.5"/>
<path d="M9.97355 9.06246H9.9829" stroke="#171717" stroke-width="2" stroke-linecap="round" stroke-linejoin="round"/>
</svg>
