<svg width="25" height="25" viewBox="0 0 25 25" fill="none" xmlns="http://www.w3.org/2000/svg">
<path d="M22.4583 11.1875L21.0417 9.54166C20.7708 9.22916 20.5521 8.64582 20.5521 8.22916V6.45832C20.5521 5.35416 19.6458 4.44791 18.5417 4.44791H16.7708C16.3646 4.44791 15.7708 4.22916 15.4583 3.95832L13.8125 2.54166C13.0938 1.92707 11.9167 1.92707 11.1875 2.54166L9.55209 3.96874C9.23959 4.22916 8.64584 4.44791 8.23959 4.44791H6.43751C5.33334 4.44791 4.42709 5.35416 4.42709 6.45832V8.23957C4.42709 8.64582 4.20834 9.22916 3.94792 9.54166L2.54167 11.1979C1.93751 11.9167 1.93751 13.0833 2.54167 13.8021L3.94792 15.4583C4.20834 15.7708 4.42709 16.3542 4.42709 16.7604V18.5417C4.42709 19.6458 5.33334 20.5521 6.43751 20.5521H8.23959C8.64584 20.5521 9.23959 20.7708 9.55209 21.0417L11.1979 22.4583C11.9167 23.0729 13.0938 23.0729 13.8229 22.4583L15.4688 21.0417C15.7813 20.7708 16.3646 20.5521 16.7813 20.5521H18.5521C19.6563 20.5521 20.5625 19.6458 20.5625 18.5417V16.7708C20.5625 16.3646 20.7813 15.7708 21.0521 15.4583L22.4688 13.8125C23.0729 13.0937 23.0729 11.9062 22.4583 11.1875ZM16.8333 10.5312L11.8021 15.5625C11.6563 15.7083 11.4583 15.7917 11.25 15.7917C11.0417 15.7917 10.8438 15.7083 10.6979 15.5625L8.17709 13.0417C7.87501 12.7396 7.87501 12.2396 8.17709 11.9375C8.47917 11.6354 8.97917 11.6354 9.28126 11.9375L11.25 13.9062L15.7292 9.42707C16.0313 9.12499 16.5313 9.12499 16.8333 9.42707C17.1354 9.72916 17.1354 10.2292 16.8333 10.5312Z" fill="#0EA5E9"/>
</svg>
